<svg width="147" height="19" viewBox="0 0 147 19" fill="none" xmlns="http://www.w3.org/2000/svg">
<path fill-rule="evenodd" clip-rule="evenodd" d="M147 17.5458H132.45V14.3663L141.309 4.9581H132.773V1.4542H146.741V4.63368L137.882 14.0419H147V17.5458ZM126.471 14.9504H126.018C125.371 16.4427 123.884 17.8053 120.941 17.8053C117.385 17.8053 114.701 15.2424 114.701 11.0573V1.4542H118.775V10.6679C118.775 12.9065 120.068 14.2366 122.396 14.2366C125.015 14.2366 126.406 12.6145 126.406 9.75952V1.4542H130.48V17.5458H126.471V14.9504ZM110.919 18C109.173 18 107.847 16.7347 107.847 14.9179C107.847 13.1011 109.173 11.8359 110.919 11.8359C112.664 11.8359 113.99 13.1011 113.99 14.9179C113.99 16.7347 112.665 18 110.919 18ZM99.2513 7.58589L99.8013 7.65078C104.942 8.26719 106.85 9.59732 106.85 12.5496C106.85 15.6965 103.907 18 99.6396 18C95.2098 18 92.95 15.729 91.4631 13.458L94.4986 11.4141C95.501 13.5229 97.6673 14.6259 99.7364 14.6259C101.385 14.6259 102.905 13.9122 102.905 12.6469C102.905 11.4466 101.256 11.2195 99.5102 11.0248L98.9607 10.9599C94.4664 10.4408 92.4291 8.98091 92.4291 5.99619C92.4291 3.01147 95.1454 1 98.8635 1C102.162 1 104.49 2.45991 106.656 4.73091L103.713 7.0668C102.485 5.60688 100.868 4.30918 98.7341 4.30918C97.2145 4.30918 96.3738 4.95801 96.3738 5.9313C96.3738 7.09922 97.5701 7.39121 99.2513 7.58589ZM82.5605 17.5458L80.0386 4.9581H79.6507L77.1288 17.5458H71.3089L68.1403 1.4542H72.214L74.1219 14.0419H74.5097L77.0317 1.4542H82.6577L85.1796 14.0419H85.5679L87.4753 1.4542H91.5495L88.3809 17.5458H82.5605ZM59.9261 14.4962C62.1891 14.4962 63.3853 13.2309 63.9353 12.0954L67.2656 14.042C66.1661 15.729 64.2909 18 59.9906 18C55.2052 18 51.7454 14.3664 51.7454 9.37022C51.7454 4.50381 55.0757 1 59.7966 1C64.4526 1 67.589 4.27671 67.589 9.11069V10.7004H55.9164C56.078 12.8416 57.5981 14.4962 59.9261 14.4962ZM63.4503 7.84532C63.1592 5.80142 61.8657 4.50372 59.7644 4.50372C57.4687 4.50372 56.2724 5.86632 55.9491 7.84532H63.4503ZM46.1512 8.33194C46.1512 6.09342 44.8578 4.76324 42.5298 4.76324C39.9107 4.76324 38.5206 6.38541 38.5206 9.24034V17.5458H34.4468V1.4542H38.4561V4.04961H38.9084C39.5551 2.55727 41.0425 1.19463 43.9849 1.19463C47.5414 1.19463 50.2254 3.75762 50.2254 7.94273V17.5458H46.1512V8.33194Z" fill="#4E6293"/>
<path fill-rule="evenodd" clip-rule="evenodd" d="M32.4961 17.5458H17.9462V14.3663L26.8054 4.9581H18.2695V1.4542H32.2373V4.63369L23.3781 14.0419H32.4961V17.5458ZM11.7691 14.9504H11.3164C10.6696 16.4427 9.18239 17.8053 6.24031 17.8053C2.68367 17.8053 0 15.2424 0 11.0573V1.4542H4.07396V10.6679C4.07396 12.9065 5.36729 14.2366 7.69527 14.2366C10.3143 14.2366 11.7046 12.6145 11.7046 9.75952V1.4542H15.7786V17.5458H11.7691V14.9504Z" fill="#A2BCDE"/>
</svg>
